Coordinates
version=1
nRows=16
nColumns=36
inDegrees=yes

Units are S.I. units (second, meters, Newtons, ...)
If the header above contains a line with 'inDegrees', this indicates whether rotational values are in degrees (yes) or radians (no).

endheader
time	pelvis_tilt	pelvis_list	pelvis_rotation	pelvis_tx	pelvis_ty	pelvis_tz	hip_flexion_r	hip_adduction_r	hip_rotation_r	knee_angle_r	knee_angle_r_beta	ankle_angle_r	subtalar_angle_r	mtp_angle_r	hip_flexion_l	hip_adduction_l	hip_rotation_l	knee_angle_l	knee_angle_l_beta	ankle_angle_l	subtalar_angle_l	mtp_angle_l	lumbar_extension	lumbar_bending	lumbar_rotation	arm_flex_r	arm_add_r	arm_rot_r	elbow_flex_r	pro_sup_r	arm_flex_l	arm_add_l	arm_rot_l	elbow_flex_l	pro_sup_l
      1.72000000	    -17.92764112	      2.48730235	     -1.90643567	     -0.31589311	      0.77830816	     -0.55144369	     72.73847615	     -4.42292280	     -0.50795057	     86.73998697	      1.51389837	     30.62362034	    -14.99382741	     -7.49662569	     72.85195759	     -4.99474570	     -0.53386724	     84.25944888	      1.47060481	     28.13730488	     -4.56623314	     -7.49662569	    -23.57718966	      3.36945218	      0.90553358	    115.03605746	    -28.72869828	     40.03345020	     76.00980864	    113.30976337	    118.12979237	    -19.19105676	     38.10909499	     54.89684463	    109.01616682
      1.73000000	    -18.25045614	      2.93891583	     -1.68893426	     -0.31045711	      0.79037129	     -0.55204150	     71.43164345	     -4.64761490	     -0.00784688	     84.67727162	      1.47789719	     30.00784015	    -15.27667911	     -7.49670961	     71.26980044	     -4.21152836	     -0.87207982	     81.84883089	      1.42853159	     27.38163519	     -5.28793826	     -7.49670961	    -22.18856146	      3.27685501	      0.95507509	    124.08161893	    -28.70357906	     45.90560059	     73.84410653	    113.01526415	    125.60645155	    -18.13139752	     42.78071531	     51.43915399	    108.64481938
      1.74000000	    -18.64126462	      3.20686091	     -1.50108755	     -0.30458843	      0.80447612	     -0.55255956	     69.85681186	     -4.79939562	      0.21841849	     82.09004370	      1.43274155	     29.08389747	    -15.73516971	     -7.49709821	     69.55605339	     -3.56630040	     -1.06013263	     79.06141463	      1.37988200	     26.26758940	     -5.93381994	     -7.49709821	    -20.68850742	      3.34363561	      1.10833007	    132.44182967	    -28.00264746	     51.77331309	     70.40773679	    110.31048412	    132.65887578	    -16.78972165	     48.03678243	     46.88423324	    105.67330469
      1.75000000	    -18.82144170	      3.22692714	     -1.55733215	     -0.29822716	      0.82125140	     -0.55252663	     67.69680706	     -4.66164786	      0.13496732	     78.86917332	      1.37652675	     27.89240846	    -16.09776677	     -7.49736289	     67.37435981	     -3.37232305	     -1.22043703	     75.89334444	      1.32458874	     25.13404800	     -6.28950256	     -7.49736289	    -19.38415057	      3.60538741	      1.52535339	    139.85944227	    -26.33868193	     56.82848596	     64.98349696	    109.33836881	    138.80923843	    -15.12677599	     52.38121073	     41.44013680	    104.07829269
      1.76000000	    -19.02854544	      3.21972031	     -1.69282774	     -0.29126656	      0.84009172	     -0.55229241	     65.29266004	     -4.47398650	     -0.04011395	     75.11841136	      1.31106361	     25.94474922	    -16.95490185	     -7.49767011	     64.94067739	     -3.25709998	     -1.39360564	     72.22671138	      1.26059392	     23.40513308	     -6.98170386	     -7.49767011	    -17.96935840	      3.78428873	      2.08940674	    146.29225199	    -24.57040168	     61.61686333	     59.01727134	    108.07663698	    144.35216695	    -13.42681717	     58.05074579	     35.90432474	    101.88264817
      1.77000000	    -19.21013866	      3.25493046	     -1.75412798	     -0.28361013	      0.86077115	     -0.55239767	     62.63417003	     -4.52096518	     -0.37149898	     70.94360684	      1.23819952	     23.92620922	    -17.17881824	     -7.49759974	     62.18121831	     -3.05570659	     -1.62079906	     67.99779367	      1.18678538	     21.53999186	     -7.20295540	     -7.49759974	    -16.42931152	      4.06944838	      2.76371205	    151.90993495	    -22.32385480	     66.19317091	     51.88992656	    109.79245898	    148.61959263	    -11.98376749	     62.88784161	     30.78222053	    102.71724588
      1.78000000	    -19.24409703	      3.40848904	     -1.77561420	     -0.27525154	      0.88332314	     -0.55235606	     59.58988161	     -4.76554659	     -0.80502365	     66.30100209	      1.15717078	     21.53564723	    -17.38764392	     -7.49834099	     58.92321025	     -2.77573031	     -1.99787074	     63.13290957	      1.10187714	     19.41709077	     -7.21674121	     -7.49834099	    -14.94123391	      4.19371537	      3.25225177	    156.43173039	    -20.05057740	     70.98504818	     45.06541913	    104.94832017	    152.61005394	    -11.09506452	     71.83105025	     27.13980439	     93.53336332
      1.79000000	    -19.13408568	      3.47083494	     -1.82384422	     -0.26622135	      0.90763187	     -0.55191030	     56.09549524	     -4.99221822	     -1.54100822	     61.11464125	      1.06665171	     18.68007357	    -17.28040418	     -7.49864139	     55.20848490	     -2.64095463	     -2.46313321	     57.69275412	      1.00692851	     16.92933884	     -6.94636726	     -7.49864139	    -13.50918640	      4.49273376	      3.98132529	    160.26316894	    -17.92105181	     76.24431172	     38.48555407	    102.64045867	    155.57014093	    -10.90253185	     79.86589349	     24.73671654	     90.51331099
      1.80000000	    -18.87593150	      3.51532609	     -1.82571012	     -0.25666824	      0.93352239	     -0.55120844	     52.16235712	     -5.29673268	     -2.57212946	     55.36771212	      0.96634888	     15.44410614	    -16.57487050	     -7.49887226	     51.00283888	     -2.50737903	     -3.02974319	     51.54191996	      0.89957621	     13.92014053	     -6.23591799	     -7.49887226	    -12.13953475	      4.81122495	      4.41201433	    163.23911392	    -16.15176370	     81.79860695	     32.88825943	     99.93079627	    158.05051051	    -11.34192879	     88.12579666	     23.46506221	     88.03238618
      1.81000000	    -18.51083422	      3.51476676	     -1.69237340	     -0.24649695	      0.96098079	     -0.55043569	     47.73923549	     -5.63357919	     -3.95941455	     48.90032586	      0.85347169	     11.42094277	    -15.69868232	     -7.49885095	     46.31973856	     -2.28900029	     -3.59816565	     44.54445073	      0.77744733	      9.90970786	     -5.32116935	     -7.49885095	    -10.70947624	      5.15200955	      4.64105212	    165.36964089	    -14.99368686	     86.82377345	     28.12033090	    101.05422737	    159.67353789	    -12.25819073	     93.70024075	     23.11714720	     89.27343250
      1.82000000	    -18.03128786	      3.57507566	     -1.50592355	     -0.23581377	      0.98972643	     -0.54938688	     42.89581537	     -5.98007078	     -5.56395755	     41.77578786	      0.72912505	      6.87398948	    -13.77337644	     -7.49915277	     41.19454341	     -2.05673139	     -4.51003356	     36.79635922	      0.64221762	      4.88894982	     -3.37622581	     -7.49915277	     -9.22790838	      5.09207164	      4.58891484	    166.73988248	    -15.26501980	     92.00137177	     25.62015249	     95.25337576	    161.28472711	    -12.67929383	    102.44262573	     22.55845131	     84.34410466
      1.83000000	    -17.55769186	      3.68105805	     -1.21635325	     -0.22469207	      1.01932555	     -0.54836848	     37.78025043	     -6.31746920	     -7.49654660	     34.00739225	      0.59354096	      1.23262958	    -11.07722137	     -7.49913754	     35.88520988	     -1.68972504	     -5.59617249	     28.43944233	      0.49636191	     -1.74426402	     -0.76753338	     -7.49913754	     -7.60109177	      4.95141416	      4.65612804	    167.72734901	    -16.32144552	     96.28169021	     23.43564335	     96.68576446	    162.00704548	    -13.47581680	    108.28819902	     22.01860969	     85.46506251
      1.84000000	    -17.06705656	      3.95743955	     -0.85227021	     -0.21339646	      1.04922584	     -0.54732406	     32.51769011	     -6.70228419	     -9.75041569	     25.76964834	      0.44976521	     -5.42340830	     -7.33441363	     -7.49937824	     30.41322691	     -1.01965439	     -6.58290236	     19.29572436	      0.33677392	    -10.74362621	      2.48639341	     -7.49937824	     -6.07574231	      4.63945522	      4.09487492	    168.43300650	    -17.78453000	    100.36032085	     22.20280086	     93.03365253	    163.32766904	    -14.76956361	    117.31182904	     22.14061760	     80.30041346
      1.85000000	    -16.71665740	      4.43172623	     -0.37424993	     -0.20218839	      1.07886996	     -0.54626530	     27.33498140	     -7.08877045	    -12.09209450	     16.94718789	      0.29578423	    -14.09450170	     -2.51834306	     -7.49956261	     24.86001489	      0.02511784	     -6.78090200	      9.08351103	      0.15853718	    -22.13701298	      5.63812196	     -7.49956261	     -4.53400236	      4.14928263	      3.07796968	    169.33181584	    -19.48551372	    104.59508757	     21.35416913	     92.68277806	    165.15671656	    -16.49935600	    127.08870026	     22.33654921	     77.90004209
      1.86000000	    -16.60594159	      4.88348052	      0.30666956	     -0.19160435	      1.10799837	     -0.54517447	     22.23728555	     -7.21829538	    -14.16341032	      7.18802351	      0.12545468	    -25.22181434	      3.06687811	     -7.49953731	     20.49481900	      0.83815993	     -8.68807573	      0.73532999	      0.01283393	    -31.25336365	      9.30064168	     -7.49953731	     -2.89284460	      3.62086223	      1.72699688	    170.66196671	    -21.51666339	    109.17248461	     21.11362071	     94.84666443	    167.45465870	    -18.33968554	    137.14489103	     22.41666750	     79.62274403
      1.87000000	    -17.15109934	      5.71830217	      1.14728628	     -0.18364217	      1.13583938	     -0.54452752	     19.39692015	     -8.02923671	    -17.80466296	      0.36649569	      0.00639656	    -33.64021568	      9.27503049	     -7.49972755	     20.25844610	      1.48240934	    -17.58443280	      0.17192703	      0.00300069	    -31.36469311	     15.19017960	     -7.49972755	     -0.92556657	      2.52275134	      0.24373881	    172.79023549	    -23.95043236	    115.19657380	     22.37277955	     88.56553680	    170.28255807	    -19.89831667	    148.00803893	     23.27909022	     73.84634827
